<svg xmlns="http://www.w3.org/2000/svg" width="26" height="25" viewBox="0 0 26 25" fill="none">
  <path d="M21.5859 24.9674C21.4036 24.895 21.1666 24.6779 20.875 24.3163C20.6927 24.0631 20.3828 23.7014 19.9453 23.2313C19.5443 22.7973 19.1432 22.345 18.7422 21.8749C18.3411 21.4048 17.9948 21.0249 17.7032 20.7356C17.4479 20.4824 17.1198 20.1388 16.7187 19.7048C16.3541 19.3431 15.8802 18.8728 15.2968 18.2942C14.7136 17.6793 13.9843 16.9559 13.1093 16.1241C12.8906 16.3049 12.6536 16.4857 12.3984 16.6666C12.1432 16.8113 11.9245 16.9741 11.7422 17.1549C11.487 17.3357 11.25 17.5166 11.0312 17.6974C10.7031 17.9867 10.2656 18.4207 9.71875 18.9995C9.24479 19.5059 8.60677 20.2111 7.80468 21.1153C7.00261 21.9834 6.01823 23.1046 4.85157 24.4791L0.0390625 20.6271C1.31511 19.7591 2.35416 19.0538 3.15625 18.5111C3.95834 17.9325 4.57813 17.4803 5.01563 17.1549C5.52604 16.757 5.90886 16.4677 6.16407 16.2868C6.34636 16.1421 6.61979 15.907 6.98437 15.5816C7.27604 15.2921 7.64063 14.9485 8.07813 14.5507C8.55209 14.1167 9.15364 13.556 9.88282 12.8688C9.26302 12.3263 8.71614 11.8742 8.24218 11.5125C7.80468 11.1146 7.44011 10.7891 7.14843 10.5359C6.78386 10.2466 6.49218 9.99338 6.27343 9.77636C5.98177 9.55935 5.58073 9.25192 5.07032 8.85406C4.63282 8.49236 4.03125 8.04025 3.26563 7.49772C2.53646 6.91902 1.58854 6.19564 0.421867 5.32758L4.30468 1.58409C5.17968 2.48832 5.90886 3.22978 6.49218 3.80849C7.07552 4.35102 7.53125 4.78504 7.85937 5.11057C8.26041 5.50843 8.57032 5.7797 8.78907 5.92436C9.11718 6.17756 9.48177 6.50307 9.88282 6.90093C10.2474 7.22645 10.6849 7.62431 11.1953 8.0945C11.7422 8.52853 12.3437 9.05299 13 9.66786L17.8672 5.32758C18.1589 5.0744 18.5052 4.74888 18.9063 4.35102C19.2709 3.98934 19.7266 3.55531 20.2734 3.04893C20.8568 2.5064 21.5677 1.8192 22.4063 0.987305L25.7968 5.11057C24.4114 5.97863 23.4453 6.62967 22.8984 7.0637C22.4975 7.35304 22.1875 7.60622 21.9687 7.82324C21.7136 8.1126 21.3307 8.47428 20.8203 8.90831C20.3828 9.30617 19.7995 9.83061 19.0703 10.4817C18.3411 11.1327 17.4114 11.9646 16.2813 12.9773C17.2657 13.8815 18.0859 14.6229 18.7422 15.2017C19.435 15.7804 19.9818 16.2506 20.3828 16.6123C20.8568 17.0102 21.2578 17.3357 21.5859 17.5889C21.9141 17.8059 22.2786 18.1134 22.6797 18.5111C23.0443 18.8367 23.4818 19.2527 23.9922 19.7591C24.5391 20.2292 25.1771 20.8079 25.9063 21.4952C24.9948 22.2909 24.2657 22.9238 23.7187 23.3941C23.1718 23.8279 22.7525 24.1716 22.4609 24.4248C22.1693 24.6418 21.9505 24.7866 21.8047 24.8588C21.6953 24.9311 21.6225 24.9674 21.5859 24.9674Z" fill="#a50202"></path>
</svg>