<svg xmlns="http://www.w3.org/2000/svg" width="26" height="25" fill="none"><path fill="#000150" d="M21.586 24.967q-.274-.109-.711-.65-.273-.381-.93-1.086a46 46 0 0 1-1.203-1.356q-.6-.705-1.039-1.14a34 34 0 0 1-.984-1.03l-1.422-1.41a61 61 0 0 0-2.188-2.17q-.327.27-.71.542a3 3 0 0 0-.657.488q-.383.271-.71.542-.493.435-1.313 1.303-.711.759-1.914 2.115-1.203 1.302-2.953 3.364L.039 20.627q1.914-1.302 3.117-2.116a168 168 0 0 0 1.86-1.356q.765-.597 1.148-.868.274-.218.82-.705.438-.435 1.094-1.031.711-.651 1.805-1.682a32 32 0 0 0-1.64-1.357 66 66 0 0 0-1.095-.976q-.546-.435-.875-.76a72 72 0 0 1-1.203-.922 32 32 0 0 0-1.804-1.356Q2.172 6.63.422 5.328l3.883-3.744Q5.617 2.94 6.492 3.808q.876.814 1.367 1.303.601.596.93.813.492.381 1.094.977.547.487 1.312 1.194.82.65 1.805 1.573l4.867-4.34q.438-.381 1.04-.977.547-.543 1.366-1.302A95 95 0 0 0 22.406.987l3.39 4.124q-2.077 1.302-2.898 1.953-.6.433-.93.76-.381.433-1.148 1.084-.655.597-1.75 1.574-1.094.976-2.789 2.495 1.477 1.357 2.461 2.225 1.04.868 1.64 1.41.712.597 1.204.977a7.4 7.4 0 0 1 1.094.922q.546.489 1.312 1.248.82.705 1.914 1.736-1.367 1.194-2.187 1.9a39 39 0 0 0-1.258 1.03q-.437.326-.656.434-.165.108-.22.108"/></svg>