
<svg width="180" height="180" viewBox="0 0 180 180" fill="none" xmlns="http://www.w3.org/2000/svg">
<path d="M46.5775 20.7505C48.2847 16.5181 54.0412 11.7451 54.0412 11.7451L63.0763 17.2266C63.0763 17.2266 55.8379 20.7547 54.0412 25.0574C52.1466 29.5945 55.2197 37.5866 55.2197 37.5866L52.0771 42.6766C52.0771 42.6766 43.2743 28.9397 46.5775 20.7505Z" fill="#4D1D1D"></path>
<path d="M69.0147 31.713C60.6421 31.1328 52.1238 37.1944 52.1238 37.1944C52.1238 37.1944 44.8613 34.1767 39.9462 33.2791C33.1558 32.039 28.823 31.1183 22.2689 33.2791C13.1023 36.3012 9.07551 41.9842 4.59158 50.5067C0.315672 58.6339 -0.530341 64.4654 0.270465 73.6075C1.45251 87.1018 5.45069 96.6497 16.7693 104.147C25.8899 110.189 35.1552 115.684 44.2673 109.629C46.7945 107.95 50.5521 106.497 50.5521 106.497C50.5521 106.497 53.9932 108.013 57.2306 109.629C67.8816 114.945 73.6412 110.109 83.9426 104.147C92.6917 99.0844 97.1625 93.9666 100.834 84.5705C104.843 74.312 104.562 66.7431 100.834 56.3798C98.0052 48.5146 94.9669 44.2608 88.6565 38.7606C82.2009 33.1338 77.5699 32.3057 69.0147 31.713Z" fill="#A50202"></path>
<path d="M157.043 3.52384L151.936 0C151.936 0 146.217 5.63916 144.08 10.18C141.562 15.5288 141.33 25.0584 141.33 25.0584L145.651 25.8415C145.651 25.8415 145.869 17.1984 148.401 12.5292C150.723 8.2481 157.043 3.52384 157.043 3.52384Z" fill="#4D1D1D"></path>
<path d="M163.72 47.7676C161.57 37.2632 167.483 34.4522 160.577 26.2332C158.127 23.3181 155.493 21.4444 152.505 20.3594C149.669 19.3299 143.686 22.3177 143.686 22.3177C143.686 22.3177 137.982 19.6852 135.829 20.3594C130.927 21.8945 127.097 24.9761 124.437 30.1486C121.147 36.5438 125.482 39.6706 122.473 46.2015C119.383 52.9088 114.267 54.7263 109.902 60.6886C100.895 72.9922 96.8025 86.984 105.581 99.4508C111.496 107.851 118.521 113.088 128.758 111.98C133.885 111.425 140.935 106.89 140.935 106.89C140.935 106.89 148.719 111.626 154.292 111.98C168.474 112.882 177.996 100.185 179.825 86.1385C181.771 71.206 166.74 62.5215 163.72 47.7676Z" fill="#4D7E51"></path>
<path d="M78.8338 135.459L81.1908 129.978C81.1908 129.978 72.2381 120.716 64.692 119.406C58.2568 118.289 55.8454 119.118 50.5501 122.93C47.3649 125.223 45.4434 132.327 45.4434 132.327L49.3716 133.893C49.3716 133.893 55.454 122.05 62.335 122.93C70.3693 123.958 78.8338 135.459 78.8338 135.459Z" fill="#4D7E51"></path>
<path d="M55.9503 143.927C58.2312 138.85 63.7016 138.93 63.7016 138.93C63.7016 138.93 55.4027 138.316 55.8509 133.841C56.1237 131.116 57.0956 129.364 59.3018 127.726C63.3899 124.689 73.1986 126.156 73.1986 126.156C73.1986 126.156 68.353 120.427 67.9101 117.159C67.5913 114.806 69.1608 113.506 70.8486 111.825C74.1437 108.544 80.2366 114.571 80.2366 114.571C80.2366 114.571 74.8156 108.685 78.3276 105.538C81.5017 102.694 86.1467 103.029 89.254 105.939C92.7282 109.193 90.5143 115.108 90.5143 115.108C90.5143 115.108 93.4817 113.835 97.0023 113.746C100.162 113.665 102.595 114.353 104.445 116.9C107.091 120.544 103.486 125.187 103.486 125.187C103.486 125.187 105.69 122.718 107.482 121.653C110.595 119.802 111.907 121.157 115.165 122.735C119.911 125.033 116.698 133.194 116.698 133.194C116.698 133.194 125.17 129.412 128.922 133.322C132.311 136.856 128.884 142.763 128.884 142.763C128.884 142.763 130.174 141.012 133.153 140.519C136.59 139.952 139.331 141.856 140.869 144.964C142.929 149.128 137.827 153.014 137.827 153.014C137.827 153.014 145.033 152.878 148.001 156.268C151.744 160.543 142.637 166.154 142.637 166.154C142.637 166.154 150.033 165.308 150.865 169.817C151.902 175.44 148.087 178.165 142.361 177.667C136.23 177.134 134.748 170.506 134.748 170.506C134.748 170.506 138.603 179.13 131.333 179.982C127.267 180.459 123.961 170.749 123.961 170.749C123.961 170.749 125.734 179.136 118.836 178.563C114.221 178.18 111.464 169.33 111.464 169.33C111.464 169.33 112.113 176.972 104.526 178.199C96.9393 179.426 101.559 167.367 101.559 167.367C101.559 167.367 97.7689 178.27 89.8136 175.897C81.8584 173.525 84.216 162.249 84.216 162.249C84.216 162.249 81.5889 170.991 77.2814 171.117C73.0366 171.242 71.9569 170.894 69.7013 167.318C67.0883 163.175 72.8465 156.551 72.8465 156.551C72.8465 156.551 66.3087 159.844 60.7598 157.067C55.0917 154.231 53.36 149.693 55.9503 143.927Z" fill="#000150"></path>
<path d="M66.263 142.115C66.263 142.115 58.8293 141.039 54.871 138.591C51.3355 136.405 49.3714 133.893 49.3714 133.893L45.4431 132.326C45.4431 132.326 39.4807 129.099 37.9793 128.411C33.8417 126.516 28.1586 122.146 28.1586 122.146C28.1586 122.146 27.6294 128.892 29.7299 132.326C32.0331 136.092 39.1578 138.591 39.1578 138.591C39.1578 138.591 32.6842 138.667 28.5514 138.983C24.5481 139.289 18.3379 140.157 18.3379 140.157C18.3379 140.157 23.8464 144.789 28.1586 145.639C31.9331 146.382 37.9793 144.856 37.9793 144.856C37.9793 144.856 35.1109 148.393 34.4439 151.12C33.565 154.713 35.6224 160.517 35.6224 160.517C35.6224 160.517 41.0021 158.847 43.0861 156.21C45.3424 153.355 45.4431 147.205 45.4431 147.205C45.4431 147.205 46.6508 153.309 49.3714 155.819C53.1474 159.303 62.3347 158.168 62.3347 158.168C62.3347 158.168 57.0439 155.297 54.871 152.295C53.3851 150.242 52.1212 146.422 52.1212 146.422C52.1212 146.422 54.7271 147.203 56.4423 147.205C59.8897 147.209 66.263 142.115 66.263 142.115Z" fill="#4D7E51"></path>
</svg>
