<svg xmlns="http://www.w3.org/2000/svg" aria-hidden="true" style="width: 0; height: 0; position: absolute; overflow: hidden">
    <defs>
        <symbol id="dagger" viewBox="0 0 36 32">
            <path d="M28.91 31.958c-.233-.093-.537-.371-.91-.833-.233-.324-.63-.787-1.19-1.389-.513-.556-1.027-1.134-1.54-1.736s-.957-1.088-1.33-1.458a43.597 43.597 0 0 1-1.26-1.319l-1.82-1.806a78.746 78.746 0 0 0-2.8-2.778c-.28.231-.583.463-.91.694a3.941 3.941 0 0 0-.84.625c-.327.231-.63.463-.91.694-.42.37-.98.926-1.68 1.667-.607.648-1.423 1.551-2.45 2.708a138.886 138.886 0 0 0-3.78 4.306l-6.16-4.931c1.633-1.111 2.963-2.014 3.99-2.708a210.73 210.73 0 0 0 2.38-1.736c.653-.509 1.143-.88 1.47-1.111.233-.185.583-.486 1.05-.903.373-.371.84-.81 1.4-1.32.607-.556 1.377-1.273 2.31-2.153a41.312 41.312 0 0 0-2.1-1.736 86.317 86.317 0 0 0-1.4-1.25c-.467-.37-.84-.694-1.12-.972a89.793 89.793 0 0 1-1.54-1.181 40.525 40.525 0 0 0-2.31-1.736 151.374 151.374 0 0 0-3.64-2.778l4.97-4.792a204.06 204.06 0 0 0 2.8 2.847c.747.694 1.33 1.25 1.75 1.667.513.509.91.856 1.19 1.042.42.324.887.741 1.4 1.25.467.417 1.027.926 1.68 1.528.7.556 1.47 1.227 2.31 2.014l6.23-5.556c.373-.324.817-.741 1.33-1.25a72.17 72.17 0 0 1 1.75-1.667 118.52 118.52 0 0 0 2.73-2.639L34.3 6.54c-1.773 1.111-3.01 1.944-3.71 2.5-.513.37-.91.694-1.19.972-.327.37-.817.833-1.47 1.389-.56.509-1.307 1.181-2.24 2.014s-2.123 1.898-3.57 3.194c1.26 1.157 2.31 2.106 3.15 2.847a76.069 76.069 0 0 1 2.1 1.806c.607.509 1.12.926 1.54 1.25.42.278.887.671 1.4 1.18.467.417 1.027.949 1.68 1.597.7.602 1.517 1.342 2.45 2.222a566.445 566.445 0 0 1-2.8 2.431c-.7.555-1.237.995-1.61 1.319-.373.278-.653.463-.84.556-.14.093-.233.139-.28.139z"></path>
        </symbol>
        <symbol id="wave" viewBox="0 0 382 32">
            <path d="M350.523.077a25.378 25.378 0 0 0-3.938 0c-15.192 1.013-12.377 26.556-27.569 27.569a25.378 25.378 0 0 1-3.938 0C299.886 26.633 302.701 1.09 287.509.077a25.378 25.378 0 0 0-3.938 0c-15.192 1.013-12.377 26.556-27.569 27.569a25.378 25.378 0 0 1-3.938 0C236.872 26.633 239.687 1.09 224.495.077a25.378 25.378 0 0 0-3.938 0c-15.192 1.013-12.377 26.556-27.569 27.569a25.378 25.378 0 0 1-3.938 0C173.858 26.633 176.673 1.09 161.481.077c-1.535-.102-3.938 0-3.938 0-15.192 1.013-12.377 26.556-27.569 27.569a25.378 25.378 0 0 1-3.938 0C110.844 26.633 113.659 1.09 98.467.077a25.378 25.378 0 0 0-3.938 0C79.337 1.09 82.152 26.633 66.96 27.646a25.378 25.378 0 0 1-3.938 0C47.83 26.633 50.645 1.09 35.453.077a25.378 25.378 0 0 0-3.938 0C16.323 1.09 19.138 26.634 3.946 27.646c-1.535.102-3.938 0-3.938 0v3.938s2.404.102 3.938 0C19.138 30.571 16.323 5.028 31.515 4.015a25.378 25.378 0 0 1 3.938 0C50.645 5.028 47.83 30.571 63.022 31.584c1.535.102 2.404.102 3.938 0C82.152 30.571 79.337 5.028 94.529 4.015a25.378 25.378 0 0 1 3.938 0c15.192 1.013 12.377 26.556 27.569 27.569 1.535.102 2.404.102 3.938 0 15.192-1.013 12.377-26.556 27.569-27.569a25.378 25.378 0 0 1 3.938 0c15.192 1.013 12.377 26.556 27.569 27.569 1.535.102 2.404.102 3.938 0 15.192-1.013 12.377-26.556 27.569-27.569a25.378 25.378 0 0 1 3.938 0c15.192 1.013 12.377 26.556 27.569 27.569 1.535.102 2.404.102 3.938 0 15.192-1.013 12.377-26.556 27.569-27.569a25.378 25.378 0 0 1 3.938 0c15.192 1.013 12.377 26.556 27.569 27.569 1.535.102 2.404.102 3.938 0 15.192-1.013 12.377-26.556 27.569-27.569a25.378 25.378 0 0 1 3.938 0c15.192 1.013 12.377 26.556 27.569 27.569 1.535.102 3.938 0 3.938 0v-3.938s-2.404.102-3.938 0C362.899 26.633 365.715 1.089 350.523.077z"></path>
        </symbol>
        <symbol id="logo" viewBox="0 0 54 32">
            <path fill="#4d1d1d" d="M12.525 5.58c.459-1.138 2.007-2.422 2.007-2.422l2.43 1.474s-1.946.949-2.43 2.106c-.509 1.22.317 3.369.317 3.369l-.845 1.369s-2.367-3.694-1.479-5.896z" style="fill: var(--color1, #4d1d1d)"></path>
            <path fill="#a50202" d="M18.559 8.528c-2.251-.156-4.542 1.474-4.542 1.474s-1.953-.811-3.275-1.053c-1.826-.333-2.991-.581-4.754 0-2.465.813-3.548 2.341-4.754 4.633-1.15 2.185-1.377 3.754-1.162 6.212.318 3.629 1.393 6.196 4.437 8.212 2.453 1.625 4.944 3.102 7.394 1.474.68-.451 1.69-.842 1.69-.842s.925.408 1.796.842c2.864 1.43 4.413.129 7.183-1.474 2.353-1.361 3.555-2.738 4.542-5.264 1.078-2.759 1.003-4.794 0-7.581-.761-2.115-1.578-3.259-3.275-4.738-1.736-1.513-2.981-1.736-5.282-1.895z" style="fill: var(--color2, #a50202)"></path>
            <path fill="#4d1d1d" d="M47.608.948 46.235 0s-1.538 1.516-2.113 2.737c-.677 1.438-.739 4.001-.739 4.001l1.162.211s.059-2.324.739-3.58c.624-1.151 2.324-2.422 2.324-2.422z" style="fill: var(--color1, #4d1d1d)"></path>
            <path fill="#4d7e51" d="M49.404 12.845c-.578-2.825 1.012-3.581-.845-5.791-.659-.784-1.367-1.288-2.171-1.58-.763-.277-2.371.527-2.371.527s-1.534-.708-2.113-.527c-1.318.413-2.348 1.241-3.063 2.632-.885 1.72.281 2.561-.528 4.317-.831 1.804-2.207 2.292-3.38 3.896-2.422 3.309-3.523 7.071-1.162 10.423 1.591 2.259 3.48 3.667 6.232 3.369 1.379-.149 3.275-1.369 3.275-1.369s2.093 1.274 3.592 1.369c3.814.243 6.374-3.172 6.866-6.949.523-4.015-3.519-6.351-4.331-10.318zM21.199 20.023l.634-1.474s-2.407-2.491-4.437-2.843c-1.73-.3-2.379-.078-3.803.948-.857.617-1.373 2.527-1.373 2.527l1.056.421s1.636-3.185 3.486-2.948c2.16.276 4.437 3.369 4.437 3.369z" style="fill: var(--color3, #4d7e51)"></path>
            <path fill="#000150" d="M15.045 22.3c.613-1.365 2.084-1.344 2.084-1.344s-2.232-.165-2.111-1.369c.073-.733.335-1.204.928-1.644 1.099-.817 3.737-.422 3.737-.422s-1.303-1.541-1.422-2.419c-.086-.633.336-.982.79-1.434.886-.882 2.524.738 2.524.738s-1.458-1.583-.513-2.429c.854-.765 2.103-.675 2.938.108.934.875.339 2.466.339 2.466s.798-.342 1.745-.366c.85-.022 1.504.163 2.001.848.712.98-.258 2.228-.258 2.228s.593-.664 1.075-.95c.837-.498 1.19-.133 2.066.291 1.276.618.412 2.813.412 2.813s2.278-1.017 3.287.035c.911.95-.01 2.539-.01 2.539s.347-.471 1.148-.603c.924-.153 1.661.36 2.075 1.195.554 1.12-.818 2.165-.818 2.165s1.938-.037 2.736.875c1.007 1.15-1.442 2.658-1.442 2.658s1.989-.227 2.213.985c.279 1.512-.747 2.245-2.287 2.111-1.649-.143-2.047-1.926-2.047-1.926s1.037 2.319-.918 2.548c-1.093.128-1.982-2.483-1.982-2.483s.477 2.255-1.378 2.101c-1.241-.103-1.982-2.483-1.982-2.483s.175 2.055-1.866 2.385c-2.04.33-.798-2.913-.798-2.913s-1.019 2.932-3.158 2.294c-2.139-.638-1.505-3.67-1.505-3.67s-.706 2.351-1.865 2.385c-1.141.034-1.432-.06-2.038-1.022-.703-1.114.846-2.895.846-2.895s-1.758.886-3.25.139c-1.524-.763-1.99-1.983-1.293-3.534z" style="fill: var(--color4, #000150)"></path>
            <path fill="#4d7e51" d="M17.819 21.812s-1.999-.289-3.063-.948c-.951-.588-1.479-1.264-1.479-1.264l-1.056-.421s-1.603-.868-2.007-1.053c-1.113-.509-2.641-1.685-2.641-1.685s-.142 1.814.423 2.737c.619 1.013 2.535 1.685 2.535 1.685s-1.741.02-2.852.105c-1.077.082-2.747.316-2.747.316s1.481 1.246 2.641 1.474c1.015.2 2.641-.211 2.641-.211s-.771.951-.951 1.685c-.236.966.317 2.527.317 2.527s1.447-.449 2.007-1.158c.607-.768.634-2.422.634-2.422s.325 1.641 1.056 2.316c1.015.937 3.486.632 3.486.632s-1.423-.772-2.007-1.579c-.4-.552-.739-1.579-.739-1.579s.701.21 1.162.211c.927.001 2.641-1.369 2.641-1.369z" style="fill: var(--color3, #4d7e51)"></path>
        </symbol>
    </defs>
</svg>