<svg xmlns="http://www.w3.org/2000/svg" width="200" height="119" fill="none"><path fill="#4D1D1D" d="M46.578 20.75c1.707-4.232 7.463-9.005 7.463-9.005l9.035 5.482s-7.238 3.528-9.035 7.83c-1.894 4.538 1.179 12.53 1.179 12.53l-3.143 5.09s-8.803-13.737-5.5-21.926"/><path fill="#A50202" d="M69.015 31.713c-8.373-.58-16.891 5.481-16.891 5.481s-7.263-3.017-12.178-3.915c-6.79-1.24-11.123-2.16-17.677 0-9.167 3.022-13.193 8.705-17.677 17.228C.316 58.634-.53 64.465.27 73.607c1.183 13.495 5.18 23.043 16.5 30.54 9.12 6.042 18.385 11.537 27.497 5.482 2.527-1.679 6.285-3.132 6.285-3.132s3.441 1.516 6.679 3.132c10.65 5.316 16.41.48 26.712-5.482 8.749-5.063 13.22-10.18 16.891-19.577 4.009-10.258 3.728-17.827 0-28.19-2.829-7.865-5.867-12.12-12.178-17.62-6.455-5.626-11.086-6.454-19.641-7.047"/><path fill="#4D1D1D" d="M177.043 3.524 171.936 0s-5.719 5.64-7.856 10.18c-2.518 5.349-2.75 14.878-2.75 14.878l4.321.784s.218-8.644 2.75-13.313c2.322-4.28 8.642-9.005 8.642-9.005"/><path fill="#4D7E51" d="M183.72 47.768c-2.15-10.505 3.763-13.316-3.143-21.535-2.45-2.915-5.084-4.789-8.072-5.874-2.836-1.03-8.819 1.959-8.819 1.959s-5.704-2.633-7.857-1.959c-4.902 1.535-8.732 4.617-11.392 9.79-3.29 6.395 1.045 9.522-1.964 16.053-3.09 6.707-8.206 8.524-12.571 14.487-9.007 12.303-13.1 26.295-4.321 38.762 5.915 8.4 12.94 13.637 23.177 12.529 5.127-.555 12.177-5.09 12.177-5.09s7.784 4.736 13.357 5.09c14.182.902 23.704-11.795 25.533-25.842 1.946-14.932-13.085-23.617-16.105-38.37M78.834 74.46l2.357-5.482s-8.953-9.262-16.499-10.572c-6.435-1.117-8.847-.288-14.142 3.524-3.185 2.293-5.107 9.397-5.107 9.397l3.929 1.566S55.454 61.05 62.335 61.93c8.034 1.028 16.499 12.53 16.499 12.53"/><path fill="#000150" d="M55.95 82.927c2.281-5.077 7.752-4.997 7.752-4.997s-8.3-.614-7.851-5.09c.273-2.724 1.245-4.476 3.45-6.114 4.089-3.037 13.898-1.57 13.898-1.57s-4.846-5.73-5.289-8.997c-.319-2.353 1.25-3.653 2.939-5.334 3.295-3.28 9.388 2.746 9.388 2.746s-5.421-5.886-1.91-9.033c3.175-2.844 7.82-2.509 10.927.401 3.474 3.254 1.26 9.17 1.26 9.17s2.968-1.274 6.488-1.363c3.16-.08 5.593.607 7.443 3.154 2.646 3.644-.959 8.287-.959 8.287s2.204-2.469 3.996-3.534c3.113-1.85 4.425-.496 7.683 1.082 4.746 2.298 1.533 10.459 1.533 10.459s8.472-3.782 12.224.128c3.389 3.534-.038 9.441-.038 9.441s1.29-1.752 4.269-2.244c3.437-.567 6.178 1.337 7.716 4.445 2.06 4.164-3.042 8.05-3.042 8.05s7.206-.135 10.174 3.255c3.743 4.274-5.364 9.885-5.364 9.885s7.396-.846 8.228 3.663c1.037 5.623-2.778 8.348-8.504 7.85-6.131-.533-7.613-7.161-7.613-7.161s3.855 8.624-3.415 9.476c-4.066.477-7.372-9.233-7.372-9.233s1.773 8.387-5.125 7.814c-4.615-.383-7.372-9.233-7.372-9.233s.649 7.642-6.938 8.869-2.967-10.832-2.967-10.832-3.79 10.903-11.745 8.53c-7.956-2.372-5.598-13.648-5.598-13.648s-2.627 8.742-6.935 8.868c-4.244.125-5.324-.223-7.58-3.799-2.613-4.143 3.146-10.767 3.146-10.767s-6.538 3.293-12.087.516c-5.668-2.836-7.4-7.374-4.81-13.14"/><path fill="#4D7E51" d="M66.263 81.115s-7.434-1.076-11.392-3.524c-3.535-2.186-5.5-4.698-5.5-4.698l-3.928-1.567s-5.962-3.227-7.464-3.915c-4.137-1.895-9.82-6.264-9.82-6.264s-.53 6.745 1.57 10.18c2.304 3.765 9.429 6.264 9.429 6.264s-6.474.076-10.607.392c-4.003.306-10.213 1.174-10.213 1.174s5.508 4.632 9.82 5.482c3.775.743 9.821-.783 9.821-.783s-2.868 3.537-3.535 6.264c-.879 3.593 1.178 9.397 1.178 9.397s5.38-1.67 7.464-4.307c2.256-2.855 2.357-9.005 2.357-9.005s1.208 6.104 3.928 8.614c3.776 3.484 12.964 2.349 12.964 2.349s-5.291-2.872-7.464-5.873c-1.486-2.053-2.75-5.873-2.75-5.873s2.606.78 4.321.783c3.448.004 9.821-5.09 9.821-5.09"/></svg>