<svg xmlns="http://www.w3.org/2000/svg" width="200" height="119" viewBox="0 0 200 119" fill="none">
  <path d="M46.5775 20.7505C48.2847 16.5181 54.0412 11.7451 54.0412 11.7451L63.0763 17.2266C63.0763 17.2266 55.8379 20.7547 54.0412 25.0574C52.1466 29.5945 55.2197 37.5866 55.2197 37.5866L52.0771 42.6766C52.0771 42.6766 43.2743 28.9397 46.5775 20.7505Z" fill="#4D1D1D"></path>
  <path d="M69.0147 31.713C60.6421 31.1328 52.1238 37.1944 52.1238 37.1944C52.1238 37.1944 44.8613 34.1767 39.9462 33.2791C33.1558 32.039 28.823 31.1183 22.2689 33.2791C13.1023 36.3012 9.07551 41.9842 4.59158 50.5067C0.315672 58.6339 -0.530341 64.4654 0.270465 73.6075C1.45251 87.1018 5.45069 96.6497 16.7693 104.147C25.8899 110.189 35.1552 115.684 44.2673 109.629C46.7945 107.95 50.5521 106.497 50.5521 106.497C50.5521 106.497 53.9932 108.013 57.2306 109.629C67.8816 114.945 73.6412 110.109 83.9426 104.147C92.6917 99.0844 97.1625 93.9666 100.834 84.5705C104.843 74.312 104.562 66.7431 100.834 56.3798C98.0052 48.5146 94.9669 44.2608 88.6565 38.7606C82.2009 33.1338 77.5699 32.3057 69.0147 31.713Z" fill="#A50202"></path>
  <path d="M177.043 3.52384L171.936 0C171.936 0 166.217 5.63916 164.08 10.18C161.562 15.5288 161.33 25.0584 161.33 25.0584L165.651 25.8415C165.651 25.8415 165.869 17.1984 168.401 12.5292C170.723 8.2481 177.043 3.52384 177.043 3.52384Z" fill="#4D1D1D"></path>
  <path d="M183.72 47.7676C181.57 37.2632 187.483 34.4522 180.577 26.2332C178.127 23.3181 175.493 21.4444 172.505 20.3594C169.669 19.3299 163.686 22.3177 163.686 22.3177C163.686 22.3177 157.982 19.6852 155.829 20.3594C150.927 21.8945 147.097 24.9761 144.437 30.1486C141.147 36.5438 145.482 39.6706 142.473 46.2015C139.383 52.9088 134.267 54.7263 129.902 60.6886C120.895 72.9922 116.802 86.984 125.581 99.4508C131.496 107.851 138.521 113.088 148.758 111.98C153.885 111.425 160.935 106.89 160.935 106.89C160.935 106.89 168.719 111.626 174.292 111.98C188.474 112.882 197.996 100.185 199.825 86.1385C201.771 71.206 186.74 62.5215 183.72 47.7676Z" fill="#4D7E51"></path>
  <path d="M78.8338 74.4592L81.1908 68.9777C81.1908 68.9777 72.2381 59.7162 64.692 58.4062C58.2568 57.289 55.8454 58.118 50.5501 61.9301C47.3649 64.2231 45.4434 71.3269 45.4434 71.3269L49.3716 72.893C49.3716 72.893 55.454 61.0498 62.335 61.93C70.3693 62.9577 78.8338 74.4592 78.8338 74.4592Z" fill="#4D7E51"></path>
  <path d="M55.9503 82.9268C58.2312 77.8497 63.7016 77.9305 63.7016 77.9305C63.7016 77.9305 55.4027 77.3162 55.8509 72.8407C56.1237 70.1165 57.0956 68.3644 59.3018 66.7257C63.3899 63.689 73.1986 65.1556 73.1986 65.1556C73.1986 65.1556 68.353 59.4267 67.9101 56.159C67.5913 53.8064 69.1608 52.506 70.8486 50.8253C74.1437 47.5443 80.2366 53.5709 80.2366 53.5709C80.2366 53.5709 74.8156 47.6851 78.3276 44.5383C81.5017 41.6943 86.1467 42.0293 89.254 44.9394C92.7282 48.193 90.5143 54.1082 90.5143 54.1082C90.5143 54.1082 93.4817 52.8353 97.0023 52.7458C100.162 52.6654 102.595 53.3526 104.445 55.8998C107.091 59.5441 103.486 64.1868 103.486 64.1868C103.486 64.1868 105.69 61.7182 107.482 60.6526C110.595 58.8021 111.907 60.1569 115.165 61.7347C119.911 64.0331 116.698 72.1938 116.698 72.1938C116.698 72.1938 125.17 68.4115 128.922 72.3223C132.311 75.8557 128.884 81.7635 128.884 81.7635C128.884 81.7635 130.174 80.0115 133.153 79.5194C136.59 78.9519 139.331 80.8565 140.869 83.9638C142.929 88.1276 137.827 92.0143 137.827 92.0143C137.827 92.0143 145.033 91.8785 148.001 95.2685C151.744 99.5433 142.637 105.154 142.637 105.154C142.637 105.154 150.033 104.308 150.865 108.817C151.902 114.44 148.087 117.165 142.361 116.667C136.23 116.134 134.748 109.506 134.748 109.506C134.748 109.506 138.603 118.13 131.333 118.982C127.267 119.459 123.961 109.749 123.961 109.749C123.961 109.749 125.734 118.136 118.836 117.563C114.221 117.18 111.464 108.33 111.464 108.33C111.464 108.33 112.113 115.972 104.526 117.199C96.9393 118.426 101.559 106.367 101.559 106.367C101.559 106.367 97.7689 117.27 89.8136 114.897C81.8584 112.525 84.216 101.249 84.216 101.249C84.216 101.249 81.5889 109.991 77.2814 110.117C73.0366 110.242 71.9569 109.894 69.7013 106.318C67.0883 102.175 72.8465 95.5507 72.8465 95.5507C72.8465 95.5507 66.3087 98.8438 60.7598 96.0671C55.0917 93.2307 53.36 88.6927 55.9503 82.9268Z" fill="#000150"></path>
  <path d="M66.263 81.1148C66.263 81.1148 58.8293 80.0386 54.871 77.5911C51.3355 75.4051 49.3714 72.8925 49.3714 72.8925L45.4431 71.3265C45.4431 71.3265 39.4807 68.0986 37.9793 67.4111C33.8417 65.5164 28.1586 61.1465 28.1586 61.1465C28.1586 61.1465 27.6294 67.892 29.7299 71.3265C32.0331 75.0924 39.1578 77.5911 39.1578 77.5911C39.1578 77.5911 32.6842 77.6666 28.5514 77.9826C24.5481 78.2887 18.3379 79.1572 18.3379 79.1572C18.3379 79.1572 23.8464 83.7893 28.1586 84.6388C31.9331 85.3822 37.9793 83.8557 37.9793 83.8557C37.9793 83.8557 35.1109 87.3932 34.4439 90.1203C33.565 93.7133 35.6224 99.5172 35.6224 99.5172C35.6224 99.5172 41.0021 97.8474 43.0861 95.2103C45.3424 92.3551 45.4431 86.2049 45.4431 86.2049C45.4431 86.2049 46.6508 92.3086 49.3714 94.8187C53.1474 98.3027 62.3347 97.168 62.3347 97.168C62.3347 97.168 57.0439 94.2965 54.871 91.2949C53.3851 89.2424 52.1212 85.4218 52.1212 85.4218C52.1212 85.4218 54.7271 86.2028 56.4423 86.2049C59.8897 86.2091 66.263 81.1148 66.263 81.1148Z" fill="#4D7E51"></path>
</svg>