<svg xmlns="http://www.w3.org/2000/svg" width="82" height="172" fill="none"><g clip-path="url('#clip0_150_638')"><path fill="#A50202" d="M0 86c0 47.496 18.356 86 41 86s41-38.504 41-86S63.644 0 41 0 0 38.504 0 86"/><path fill="#000150" d="M8.865 86c0 37.078 14.14 67.135 31.581 67.135 17.442 0 31.581-30.057 31.581-67.135s-14.139-67.136-31.58-67.136C23.003 18.864 8.864 48.922 8.864 86"/><path fill="#4D7E51" d="M18.839 86c0 26.66 9.674 48.271 21.608 48.271 11.933 0 21.608-21.611 21.608-48.27S52.38 37.73 40.447 37.73 18.838 59.34 18.838 86"/></g></svg>