<svg xmlns="http://www.w3.org/2000/svg" width="776" height="65" fill="none"><path fill="#4D1D1D" d="M712 .156c-3.117-.208-4.883-.208-8 0-30.859 2.057-25.141 53.943-56 56-3.117.208-4.883.208-8 0-30.859-2.057-25.141-53.943-56-56-3.117-.208-4.883-.208-8 0-30.859 2.057-25.141 53.943-56 56-3.117.208-4.883.208-8 0-30.859-2.057-25.141-53.943-56-56-3.117-.208-4.883-.208-8 0-30.859 2.057-25.141 53.943-56 56-3.117.208-4.883.208-8 0-30.859-2.057-25.141-53.943-56-56-3.117-.208-8 0-8 0-30.859 2.057-25.141 53.943-56 56-3.117.208-4.883.208-8 0-30.859-2.057-25.141-53.943-56-56-3.117-.208-4.883-.208-8 0-30.859 2.057-25.141 53.943-56 56-3.117.208-4.883.208-8 0-30.86-2.057-25.141-53.943-56-56-3.117-.208-4.883-.208-8 0-30.86 2.057-25.14 53.943-56 56-3.117.208-8 0-8 0v8s4.883.208 8 0c30.86-2.057 25.14-53.943 56-56 3.117-.208 4.883-.208 8 0 30.859 2.057 25.14 53.943 56 56 3.117.208 4.883.208 8 0 30.859-2.057 25.141-53.943 56-56 3.117-.208 4.883-.208 8 0 30.859 2.057 25.141 53.943 56 56 3.117.208 4.883.208 8 0 30.859-2.057 25.141-53.943 56-56 3.117-.208 4.883-.208 8 0 30.859 2.057 25.141 53.943 56 56 3.117.208 4.883.208 8 0 30.859-2.057 25.141-53.943 56-56 3.117-.208 4.883-.208 8 0 30.859 2.057 25.141 53.943 56 56 3.117.208 4.883.208 8 0 30.859-2.057 25.141-53.943 56-56 3.117-.208 4.883-.208 8 0 30.859 2.057 25.141 53.943 56 56 3.117.208 4.883.208 8 0 30.859-2.057 25.141-53.943 56-56 3.117-.208 4.883-.208 8 0 30.859 2.057 25.141 53.943 56 56 3.117.208 8 0 8 0v-8s-4.883.208-8 0c-30.86-2.057-25.14-53.943-56-56"/></svg>