<svg xmlns="http://www.w3.org/2000/svg" width="776" height="65" viewBox="0 0 776 65" fill="none">
    <path
        d="M712 0.155864C708.883 -0.0519547 707.117 -0.0519546 704 0.155864C673.141 2.21316 678.859 54.0986 648 56.1559C644.883 56.3637 643.117 56.3637 640 56.1559C609.141 54.0986 614.859 2.21316 584 0.155864C580.883 -0.0519546 579.117 -0.0519546 576 0.155864C545.141 2.21316 550.859 54.0986 520 56.1559C516.883 56.3637 515.117 56.3637 512 56.1559C481.141 54.0986 486.859 2.21316 456 0.155864C452.883 -0.0519546 451.117 -0.0519546 448 0.155864C417.141 2.21316 422.859 54.0986 392 56.1559C388.883 56.3637 387.117 56.3637 384 56.1559C353.141 54.0986 358.859 2.21316 328 0.155864C324.883 -0.0519546 320 0.155864 320 0.155864C289.141 2.21316 294.859 54.0986 264 56.1559C260.883 56.3637 259.117 56.3637 256 56.1559C225.141 54.0986 230.859 2.21316 200 0.155864C196.883 -0.0519546 195.117 -0.0519546 192 0.155864C161.141 2.21316 166.859 54.0986 136 56.1559C132.883 56.3637 131.117 56.3637 128 56.1559C97.1405 54.0986 102.859 2.21316 72 0.155864C68.8827 -0.0519546 67.1173 -0.0519547 64 0.155864C33.1404 2.21317 38.8596 54.0989 8 56.1562C4.88273 56.3641 0 56.1562 0 56.1562V64.1559C0 64.1559 4.88273 64.3637 8 64.1559C38.8594 62.0986 33.1406 10.2132 64 8.15586C67.1173 7.94805 68.8827 7.94805 72 8.15586C102.859 10.2132 97.1406 62.0986 128 64.1559C131.117 64.3637 132.883 64.3637 136 64.1559C166.859 62.0986 161.141 10.2132 192 8.15586C195.117 7.94805 196.883 7.94805 200 8.15586C230.859 10.2132 225.141 62.0986 256 64.1559C259.117 64.3637 260.883 64.3637 264 64.1559C294.859 62.0986 289.141 10.2132 320 8.15586C323.117 7.94805 324.883 7.94805 328 8.15586C358.859 10.2132 353.141 62.0986 384 64.1559C387.117 64.3637 388.883 64.3637 392 64.1559C422.859 62.0986 417.141 10.2132 448 8.15586C451.117 7.94805 452.883 7.94805 456 8.15586C486.859 10.2132 481.141 62.0986 512 64.1559C515.117 64.3637 516.883 64.3637 520 64.1559C550.859 62.0986 545.141 10.2132 576 8.15586C579.117 7.94805 580.883 7.94805 584 8.15586C614.859 10.2132 609.141 62.0986 640 64.1559C643.117 64.3637 644.883 64.3637 648 64.1559C678.859 62.0986 673.141 10.2132 704 8.15586C707.117 7.94805 708.883 7.94805 712 8.15586C742.859 10.2132 737.141 62.0986 768 64.1559C771.117 64.3637 776 64.1559 776 64.1559V56.1562C776 56.1562 771.117 56.3641 768 56.1562C737.14 54.0989 742.86 2.21317 712 0.155864Z"
        fill="#4D1D1D" />
</svg>